<svg width="64" height="37" viewBox="0 0 64 37" fill="none" xmlns="http://www.w3.org/2000/svg">
<path d="M55.9474 0.0692139H20.7158C19.6484 0.0692139 18.7832 0.934506 18.7832 2.00182V8.02447H5.8946C4.08671 8.02447 2.52027 9.27783 2.12357 11.0417L0.660841 17.5463C0.285143 19.2171 0.0954895 20.9245 0.0954895 22.637V36.1664H18.7832C18.7832 35.8519 18.7832 31.072 18.7832 25.5371H55.9476C57.0149 25.5371 57.8802 24.6718 57.8802 23.6045V2.00182C57.88 0.934377 57.0149 0.0692139 55.9474 0.0692139Z" fill="#FF7E40"/>
<path d="M63.034 17.2375H57.8802V13.7695H60.4571C60.9909 13.7695 61.4234 13.3368 61.4234 12.8032C61.4234 12.2695 60.9909 11.8369 60.4571 11.8369H57.8802V8.36886H61.7455C62.2793 8.36886 62.7118 7.93621 62.7118 7.40255C62.7118 6.8689 62.2793 6.43625 61.7455 6.43625H57.8802V2.96812H63.034C63.5678 2.96812 64.0004 2.53548 64.0004 2.00182C64.0004 1.46816 63.5678 1.03552 63.034 1.03552H57.6195C57.2852 0.458441 56.6625 0.0692139 55.9476 0.0692139H54.015V21.672H18.7832C18.7832 14.8735 18.7832 8.20794 18.7832 8.02434H14.9179V25.5372H12.019C9.2018 25.5372 6.63904 26.641 4.73503 28.4361H0.0954895V36.1666H18.7832C18.7832 35.9044 18.7832 31.1025 18.7832 25.5372H30.695H55.9476C56.6625 25.5372 57.2852 25.148 57.6195 24.5709H61.7455C62.2793 24.5709 62.7118 24.1383 62.7118 23.6046C62.7118 23.071 62.2793 22.6383 61.7455 22.6383H57.8802V19.1702H63.034C63.5678 19.1702 64.0004 18.7376 64.0004 18.2039C64.0004 17.6702 63.5678 17.2375 63.034 17.2375Z" fill="#FF6344"/>
</svg>
